<svg xmlns="http://www.w3.org/2000/svg" viewBox="0 0 400 180"><defs><style>.cls-1{fill:#fff;}.cls-2{fill:none;opacity:0.5;}</style></defs><g id="Слой_2" data-name="Слой 2"><g id="Слой_1-2" data-name="Слой 1"><path class="cls-1" d="M341,115.91v10.9c-19.22-8.65-39.12-11.9-61.34-9.41,2.68-4.37,4-9,6.93-10.62s7.64-.36,12-.36V99.07c-.51-.29-.78-.55-1.08-.58-2-.24-4-.42-6-.62,1.07-1.73,2.11-3.49,3.24-5.19,3.38-5.11,6.8-10.2,11-16.44.18,3.9-.12,6.44.49,8.76,1,4,4.26,3.8,8.09,2.94.33-4.09.48-8.26,1-12.37.63-4.64,3.06-8.53,5.93-12.38,1.77,5,6.16,8.62,4.22,14.71-.9,2.81,1.59,6.57,2.15,10,.38,2.29.07,4.68.07,7.86l6.88-1.78c.07-10,1.84-16.77,5.89-21.72,2.73,4.78,5.65,9,4.62,14.79-.39,2.2.86,4.65,1.14,7,.21,1.84-.34,3.85.19,5.56.68,2.2,2.1,4.17,3.6,7v7.28l1.28.13C349.05,119,344.75,115,341,115.91Zm-30.38-10.44c.58-3.16.92-5,1.2-6.49H299.59c.74,3,.54,7.62,2.36,8.59,5.34,2.84,11.47,4.23,17.69,6.32v-8.42Zm19.22,9.78c.59-2.87,1.75-5.59,1.14-6-2.52-1.89-5.57-3.09-8.42-4.55l-1.58,1.27c.5,3.13-.13,7.61,1.73,9.1,4.69,3.77,10.5,6.18,16.3,9.38v-8.7C335.48,115.25,331.6,118.66,329.8,115.25ZM308.37,94.78l1.35,1.38,6.09-5.47C310.11,87.7,309.56,88.08,308.37,94.78Z"/><path class="cls-1" d="M363.58,152.68c-33-8.78-66.58-10.91-102.13-7.15,3.93-6.27,6.71-11.94,10.74-16.56,1.64-1.88,5.95-1.78,9.09-2.07,23-2.15,45.46-.87,65.71,11.61,6.09,3.76,11.59,8.45,17.36,12.71Z"/><path class="cls-1" d="M38.63,143.38c24.76,5.69,48.92,1.17,73-4.27l.7,1.22c-2.84,4.6-5.61,9.24-8.52,13.8-6,9.34-6,9.23-17.23,6.94-15.3-3.12-30.19-7.39-44.25-14.18-1.33-.65-2.63-1.36-4-2Z"/><path class="cls-1" d="M71.31,90.77,60.8,94.53a38.54,38.54,0,0,1,11.54-8c7-3.12,10.49-4.71,13.41-6.6,1.8-1.16,2.19,3.43,2,7.54-.33,5.81-9.5,13.58-9.75,19.4a4.8,4.8,0,0,1-2.45,3.4c-8.3,3.72-16.67,7.32-25.15,10.64-1.56.61-3.72-.26-5.61-.45.45-1.81.36-4.06,1.45-5.34a114.37,114.37,0,0,1,8.68-8.35l1.2,1c-.18,1.69-.35,3.37-.64,6.21C63.56,107.52,69.2,100.75,71.31,90.77Z"/><path class="cls-1" d="M68.53,125.18c3.39-2.53,7.29-7,10.25-9.2.18,2.53,4,5.83,2.2,6.5A65.91,65.91,0,0,1,68.53,125.18Z"/><path class="cls-1" d="M310.58,105.47h9.06v8.42c-6.22-2.09-12.35-3.48-17.69-6.32-1.82-1-1.62-5.59-2.36-8.59h12.19C311.5,100.5,311.16,102.31,310.58,105.47Z"/><path class="cls-1" d="M329.8,115.25c1.8,3.41,5.68,0,9.17.45v8.7c-5.8-3.2-11.61-5.61-16.3-9.38-1.86-1.49-1.23-6-1.73-9.1l1.58-1.27c2.85,1.46,5.9,2.66,8.42,4.55C331.55,109.66,330.39,112.38,329.8,115.25Z"/><path class="cls-1" d="M308.37,94.78c1.19-6.7,1.74-7.08,7.44-4.09l-6.09,5.47Z"/><path class="cls-1" d="M122,107.4a53,53,0,0,0-6.76,3c-4.6,2.78-9,5.92-13.55,8.78-5.47,3.42-10.95,5.11-15.16,4.86l.43-2.84a48.07,48.07,0,0,0-6,1.31c-2.16.76-3.25-.71-3.58-2.12s-.59-3.24,1.38-4.38c6-3.49,11.92-7.14,17.84-10.79a15.92,15.92,0,0,0,3.58-3.13c-4.3-.41-8.22.88-12.09,2.27s-11,5.47-15.4,7.17c3.12-4.43,4.83-11.47,5.2-15.75.28-3.15.27-6.33.28-9.5a8.09,8.09,0,0,0-.63-2.17c3.8,0,6.84-2.55,9.38-5.44,6.36-7.27,12.44-14.79,18.66-22.18,2.67-3.18,5.41-6.3,8.11-9.46,2-2.32,4.57-2.89,7-1.39a41.84,41.84,0,0,1,8.47,6.62c3,3.18,5.38,7,8.15,10.42a47.08,47.08,0,0,0,5.14,5.6c2.95,2.67,6.45,3.12,9.72.89a90.15,90.15,0,0,0,9.41-7.63c4.08-3.67,7.88-7.67,12-11.32,3.44-3.09,7.19-5.43,12.07-2.93.55.28,1.76-.29,2.41-.8,3.3-2.62,6.56-5.31,9.78-8,5.09-4.31,10.12-8.69,15.21-13,1.14-1,2.22-1.8,4-.58.61.43,2.71-.55,3.52-1.46,2-2.26,3.7-4.86,5.53-7.3.56-.74,1.16-1.45,1.9-2.37,3.88,3,7.67,5.9,11.44,8.82l31,24c1.45,1.12,2.74,2.12.57,3.95-.5.41-.16,1.87-.22,3.09l-3.67.51c.61,1,1.11,1.79,1.64,2.63l-3.26,1.51,2.42,1.25-1.08,1.86,2.08,1.21-.53.76-9.58-5.49c2,4.9,5.35,7.65,8.63,10.75l-2,1.55,1.69,2.39c-1.54,1.08-2.78.81-4.26-.22q-11.73-8.15-23.6-16.05a53.33,53.33,0,0,0-6.66-3.19c-.34,6.43,1,11.76,4.49,16.39a5.81,5.81,0,0,0,3.09,1.5c3.45.94,6.94,1.73,10,2.47.42,2.9.78,5.4,1.08,7.45,3.41-.61,6.13-1.07,8.83-1.62a2.16,2.16,0,0,0,1.29-.94c1.28-2.32,2.85-2.91,5.82-1.89l-2.86,1c.61.74,1.12,1.34,1.75,2.09l-3.56.86c.81,1.57,1.56,3,2.41,4.71l-2.6,1.13,1.87,1.53c-1.12,1.62-2.08,3.41-4.53,2.51-1.77-.64-3.79-.77-5.38-1.7a48.78,48.78,0,0,0-17.93-6.22c-.58-.09-1.16-.17-1.73-.29-.14,0-.25-.19-.78-.63h5.62c-.58-3.24-4.79-4.19-10.38-2.61A7.36,7.36,0,0,0,233,85.16c2.11,1.2,4.39,2.1,6.53,3.25,2,1,3.61,2.44,4,4.88-5.8.69-11.53,1.14-17.19,2.08-17.46,2.9-34.27,8.35-51,14-19.84,6.65-39.63,13.5-59.57,19.84-11.17,3.54-22.6,6.22-34.48,5.42a22.36,22.36,0,0,1-5.09-1c2.11-.23,4.21-.45,6.32-.7a24.66,24.66,0,0,0,11.39-4.3c7.53-5.25,15.16-10.34,22.71-15.56,2-1.41,4-3.06,5.92-4.6ZM124.1,66l.71,0c0-4.31.08-8.62,0-12.93a8,8,0,0,0-1.11-3.36,5,5,0,0,0-5-2.79c-2.12.16-3.1,1.9-3.57,3.81a13.22,13.22,0,0,0-.61,4.55c.5,4.45,1.27,8.87,1.92,13.26-.22.73-.87,1.73-.7,2.54a49.13,49.13,0,0,0,2.11,7.36c1.38,3.65,2.41,7.3,1.93,11.26-.19,1.5-.32,3-.48,4.48.34.07.53.17.66.12,8.8-3.32,17.3-7.27,24.94-13A12.35,12.35,0,0,0,146.73,79l-.45-.46-8.09,4.28c1-1.74,2.43-3.07,3.54-4.6a3,3,0,0,0,.42-2.61c-1.39-2-3.08-3.86-4.66-5.76a10.51,10.51,0,0,0-.33,4.14,37.8,37.8,0,0,1,.34,4.09c0,.62-.64,1.22-1,1.82-2.15-10.54-2.31-11-5.54-12.67q-2.78,7.59-5.55,15.15l-.52-.08Q122,72,119.12,61.67l.51-.28ZM236.91,39.48l.33-.35,20.14,12c2.17,1.29,4.32,2.62,6.52,3.84.41.23,1,.05,1.55.06a10.62,10.62,0,0,0-.52-1.5c-.15-.28-.49-.45-.75-.67L237.77,30.35c-1.83-1.57-3.65-3.16-6-5.22l8.57.82.09-.58-12.77-7c-1.23,3.45-3.28,6.22-1.17,9.82,2.53,4.29,2.36,4.41-1.18,8.06a3.6,3.6,0,0,0-.41.76c1.06,1.22,2,2.52,3.18,3.62,6.31,6,12.6,12.07,19,18,2.41,2.2,5.51,3.12,9.37,3.93Z"/><path class="cls-1" d="M297.6,106.39c-1.41,5.24-16.35,5.44-17.7,10.77-23.37,3.67-45.31,13.77-67.39,23.48C193.59,149,174.56,157,154.4,161.78a159.88,159.88,0,0,1-53.12,3.63c-32.92-8.76-3.47-2.74-5.28-3,3-5.14,6.76-7.66,9.62-12.47,1.44-2.42,2.94-4.82,4.6-7.08,1.44-3.7-.87-3.33,3.17-4.59,20.9-6.56,47.17-15.86,68-22.59,19.18-6.21,38.64-11.47,58.74-13.41,9.89-1,19.89-.7,29.84-1,1.75,0,3.5.14,5.45.23V92.15c-1.88.48-3.63,1.06-5.42,1.33a5,5,0,0,1-3.18-.39A6,6,0,0,1,265,90.3c-.06-.15,1.25-.94,2-1.36a11.73,11.73,0,0,1,1.65-.67l-2-1.37c1.88-2.43-1.67-3.49-1.29-5.71l4.25-.81-2.11-2.26,4.42-1.21-5-2.47,3.36-1.13-2.34-2.89L271.13,69c-.54-1.56-1-2.85-1.47-4.31l3.08-.77L269.33,61c1.94-1.61,2.48-3.52,1.06-5.83l2.38-.43a46.49,46.49,0,0,1,1.51-6.24A3.15,3.15,0,0,1,276.69,47a2.84,2.84,0,0,1,2.07,1.64,56.46,56.46,0,0,1,1.47,6.19l2.34.4c-1.32,2.25-1.16,4.16,1.16,5.69l-3.44,2.93,2.64.73a6.94,6.94,0,0,1-.05,2.09,10.3,10.3,0,0,1-1.41,2.13L285,70.42l-2.23,2.87,3,1.16-4.61,2.48,4.1,1.22-1.89,2.26,4.32.92c-.74,1.77-1.43,3.42-2.11,5.07l.8.37-2,1.34a11.31,11.31,0,0,0,1.09.71c1,.52,3.11.32,2.35,2.15a4.59,4.59,0,0,1-3.35,2.36c-2.19.09-4.42-.63-7-1.09,0,2.77-.09,5.57.08,8.34,0,.5,1,1.22,1.7,1.36C281.62,102.45,294.75,105.94,297.6,106.39Z"/><path class="cls-1" d="M275.26,127.51c-2.13,3.43-1.42,7.77-3.1,11.6-2.72,6.16,1.82,3-20.39,8.79-13.58,2.08-27,5.51-40.42,8.39l-1.88.36C228.71,142.06,252.77,131.93,275.26,127.51Z"/><path class="cls-1" d="M290.78,86.88l1.82-.38a.92.92,0,0,0,.64-1.34l-.13-.24a.92.92,0,0,1,.48-1.29l.75-.3a.93.93,0,0,0,.06-1.68l-1-.52a.93.93,0,0,1,0-1.65h0a.94.94,0,0,0,.34-1.42l-.75-1a.93.93,0,0,1,.35-1.42l1.32-.61a.94.94,0,0,0,.53-1.15l-.83-2.55a.92.92,0,0,1,.66-1.19l.32-.07a.93.93,0,0,0,.36-1.61l-2-1.67.71,0c.3-1.72.59-3.43.92-5.35a.94.94,0,0,1,.8-.78l.18,0a.92.92,0,0,0,.79-.75,43.49,43.49,0,0,1,1.22-5.53,2.75,2.75,0,0,1,2.07-1.52,2.78,2.78,0,0,1,2,1.56,46.83,46.83,0,0,1,1.4,5.58.93.93,0,0,0,.65.7l.41.11a.93.93,0,0,1,.59,1.21,3.29,3.29,0,0,0,.87,3.86,1,1,0,0,1,.05,1.41l-1.34,1.23a.92.92,0,0,0,.28,1.52l.47.21a.91.91,0,0,1,.55.94c-.17,2-.08,4.1-1.18,5.93-.09.48-.23,1.26-.5,1.34-1.54,3.42-2.78,6.47-5.19,8.82A30.93,30.93,0,0,0,296,91.9c-.47.67.91-2.12-1.21.78-.62.85-3.1,5.56-3.24,5.19-.59-1.5-1-7.22-1.47-9.93A.92.92,0,0,1,290.78,86.88Z"/><path class="cls-1" d="M293.1,58.34l-1.58.21-1.9,4.8,2,.92c-1.27,1.11-4.15.34-6.48-2a3,3,0,0,1-.42-4.22l-1.38-.91c1.92-.63,4-1.28,6-2s2.3-.4,2.61,1.73C292,57.41,292.7,57.85,293.1,58.34Z"/><rect class="cls-2" width="400" height="180"/></g></g></svg>